<svg width="327" height="52" viewBox="0 0 327 52" fill="none" xmlns="http://www.w3.org/2000/svg">
<rect x="0.999998" y="1" width="325" height="50" stroke="#BCC5E3"/>
<path d="M19.9502 35V29.132H25.4762V27.386H19.9502V23.444H26.2862V21.698H18.1502V35H19.9502ZM29.0265 23.984C29.6925 23.984 30.2505 23.462 30.2505 22.742C30.2505 22.076 29.6925 21.536 29.0265 21.536C28.3065 21.536 27.7665 22.04 27.7665 22.742C27.7665 23.462 28.3065 23.984 29.0265 23.984ZM29.8545 25.352H28.1265V35H29.8545V25.352ZM34.2667 35V29.888C34.2667 27.818 35.3827 26.756 36.9127 26.756C37.2367 26.756 37.5787 26.81 37.9207 26.918L38.0827 25.244C37.7047 25.154 37.3267 25.1 36.9487 25.1C35.6707 25.1 34.7347 25.658 34.1767 26.774V25.352H32.5387V35H34.2667ZM42.0941 35.216C43.1201 35.216 43.9481 34.928 44.5961 34.37C45.2441 33.812 45.5681 33.11 45.5681 32.282C45.5681 31.22 45.0281 30.41 43.9301 29.852C43.6421 29.69 43.2101 29.492 42.6341 29.258L41.5721 28.79C41.0321 28.538 40.7621 28.16 40.7621 27.656C40.7621 27.008 41.2841 26.486 42.1481 26.486C43.0121 26.486 43.6961 26.864 44.2181 27.602L45.3161 26.558C44.6681 25.55 43.4801 25.028 42.2561 25.028C41.3021 25.028 40.5461 25.28 39.9701 25.802C39.3941 26.306 39.1061 26.954 39.1061 27.728C39.1061 28.754 39.5921 29.528 40.5821 30.068C40.7801 30.176 41.1761 30.356 41.7701 30.608C42.3641 30.86 42.7781 31.04 42.9761 31.148C43.5701 31.454 43.8581 31.868 43.8581 32.372C43.8581 33.11 43.1741 33.704 42.1481 33.704C41.2661 33.704 40.3121 33.2 39.7541 32.174L38.5121 33.128C39.2501 34.514 40.6541 35.216 42.0941 35.216ZM53.1321 33.092C52.5381 33.47 51.9621 33.65 51.4041 33.65C50.3601 33.65 49.8381 33.02 49.8381 31.742V26.828H53.2581V25.352H49.8381V21.932H48.1461V25.352H46.4181V26.828H48.1281V31.616C48.1281 33.92 49.1721 35.234 51.2061 35.234C52.2321 35.234 53.0781 34.964 53.7801 34.424L53.1321 33.092ZM68.861 31.184L60.761 21.698H59.951V35H61.733V25.568L69.707 35H70.643V21.698H68.861V31.184ZM81.198 26.756C80.298 25.658 79.164 25.118 77.796 25.118C76.41 25.118 75.258 25.586 74.34 26.54C73.422 27.476 72.972 28.664 72.972 30.104C72.972 31.562 73.422 32.768 74.34 33.758C75.258 34.748 76.41 35.234 77.796 35.234C79.2 35.234 80.334 34.694 81.198 33.632V35H82.854V25.352H81.198V26.756ZM81.306 30.158C81.306 31.148 81 31.976 80.388 32.642C79.776 33.308 78.984 33.65 77.994 33.65C77.004 33.65 76.212 33.308 75.618 32.642C75.024 31.976 74.718 31.148 74.718 30.176C74.718 29.204 75.024 28.376 75.618 27.71C76.212 27.044 77.004 26.702 77.994 26.702C78.984 26.702 79.776 27.044 80.388 27.71C81 28.376 81.306 29.204 81.306 30.158ZM96.6787 25.1C95.1667 25.1 93.8167 25.802 93.1687 26.9C92.6467 25.766 91.4407 25.1 90.1447 25.1C88.8667 25.082 87.8047 25.712 87.2287 26.774V25.352H85.5367V35H87.2647V29.6C87.2647 27.854 88.3447 26.702 89.8567 26.702C91.2967 26.702 92.1967 27.764 92.1967 29.564V35H93.9067V29.564C93.9067 27.854 94.9687 26.702 96.4807 26.702C97.9207 26.702 98.8027 27.728 98.8027 29.528V35H100.531V29.258C100.531 27.98 100.189 26.972 99.4867 26.234C98.7847 25.478 97.8487 25.1 96.6787 25.1ZM112.026 29.996C112.026 28.502 111.594 27.314 110.712 26.432C109.848 25.55 108.732 25.118 107.364 25.118C105.924 25.118 104.754 25.586 103.836 26.54C102.936 27.494 102.486 28.682 102.486 30.14C102.486 32.642 103.998 35.216 107.634 35.216C109.236 35.216 110.82 34.604 111.774 33.866L111.036 32.552C110.154 33.2 108.822 33.632 107.67 33.632C105.654 33.632 104.574 32.516 104.286 30.878H111.972C112.008 30.41 112.026 30.122 112.026 29.996ZM104.286 29.384C104.574 27.782 105.78 26.648 107.364 26.648C108.948 26.648 110.154 27.71 110.244 29.384H104.286Z" fill="white" fill-opacity="0.29"/>
</svg>
