<svg width="327" height="52" viewBox="0 0 327 52" fill="none" xmlns="http://www.w3.org/2000/svg">
<rect x="1" y="1" width="325" height="50" stroke="#BCC5E3"/>
<path d="M27.0961 35V33.254H19.9501V21.698H18.1501V35H27.0961ZM36.11 26.756C35.21 25.658 34.076 25.118 32.708 25.118C31.322 25.118 30.17 25.586 29.252 26.54C28.334 27.476 27.884 28.664 27.884 30.104C27.884 31.562 28.334 32.768 29.252 33.758C30.17 34.748 31.322 35.234 32.708 35.234C34.112 35.234 35.246 34.694 36.11 33.632V35H37.766V25.352H36.11V26.756ZM36.218 30.158C36.218 31.148 35.912 31.976 35.3 32.642C34.688 33.308 33.896 33.65 32.906 33.65C31.916 33.65 31.124 33.308 30.53 32.642C29.936 31.976 29.63 31.148 29.63 30.176C29.63 29.204 29.936 28.376 30.53 27.71C31.124 27.044 31.916 26.702 32.906 26.702C33.896 26.702 34.688 27.044 35.3 27.71C35.912 28.376 36.218 29.204 36.218 30.158ZM43.1487 35.216C44.1747 35.216 45.0027 34.928 45.6507 34.37C46.2987 33.812 46.6227 33.11 46.6227 32.282C46.6227 31.22 46.0827 30.41 44.9847 29.852C44.6967 29.69 44.2647 29.492 43.6887 29.258L42.6267 28.79C42.0867 28.538 41.8167 28.16 41.8167 27.656C41.8167 27.008 42.3387 26.486 43.2027 26.486C44.0667 26.486 44.7507 26.864 45.2727 27.602L46.3707 26.558C45.7227 25.55 44.5347 25.028 43.3107 25.028C42.3567 25.028 41.6007 25.28 41.0247 25.802C40.4487 26.306 40.1607 26.954 40.1607 27.728C40.1607 28.754 40.6467 29.528 41.6367 30.068C41.8347 30.176 42.2307 30.356 42.8247 30.608C43.4187 30.86 43.8327 31.04 44.0307 31.148C44.6247 31.454 44.9127 31.868 44.9127 32.372C44.9127 33.11 44.2287 33.704 43.2027 33.704C42.3207 33.704 41.3667 33.2 40.8087 32.174L39.5667 33.128C40.3047 34.514 41.7087 35.216 43.1487 35.216ZM54.1866 33.092C53.5926 33.47 53.0166 33.65 52.4586 33.65C51.4146 33.65 50.8926 33.02 50.8926 31.742V26.828H54.3126V25.352H50.8926V21.932H49.2006V25.352H47.4726V26.828H49.1826V31.616C49.1826 33.92 50.2266 35.234 52.2606 35.234C53.2866 35.234 54.1326 34.964 54.8346 34.424L54.1866 33.092ZM69.9155 31.184L61.8155 21.698H61.0055V35H62.7875V25.568L70.7615 35H71.6975V21.698H69.9155V31.184ZM82.2526 26.756C81.3526 25.658 80.2186 25.118 78.8506 25.118C77.4646 25.118 76.3126 25.586 75.3946 26.54C74.4766 27.476 74.0266 28.664 74.0266 30.104C74.0266 31.562 74.4766 32.768 75.3946 33.758C76.3126 34.748 77.4646 35.234 78.8506 35.234C80.2546 35.234 81.3886 34.694 82.2526 33.632V35H83.9086V25.352H82.2526V26.756ZM82.3606 30.158C82.3606 31.148 82.0546 31.976 81.4426 32.642C80.8306 33.308 80.0386 33.65 79.0486 33.65C78.0586 33.65 77.2666 33.308 76.6726 32.642C76.0786 31.976 75.7726 31.148 75.7726 30.176C75.7726 29.204 76.0786 28.376 76.6726 27.71C77.2666 27.044 78.0586 26.702 79.0486 26.702C80.0386 26.702 80.8306 27.044 81.4426 27.71C82.0546 28.376 82.3606 29.204 82.3606 30.158ZM97.7333 25.1C96.2213 25.1 94.8713 25.802 94.2233 26.9C93.7013 25.766 92.4953 25.1 91.1993 25.1C89.9213 25.082 88.8593 25.712 88.2833 26.774V25.352H86.5913V35H88.3193V29.6C88.3193 27.854 89.3993 26.702 90.9113 26.702C92.3513 26.702 93.2513 27.764 93.2513 29.564V35H94.9613V29.564C94.9613 27.854 96.0233 26.702 97.5353 26.702C98.9753 26.702 99.8573 27.728 99.8573 29.528V35H101.585V29.258C101.585 27.98 101.243 26.972 100.541 26.234C99.8393 25.478 98.9033 25.1 97.7333 25.1ZM113.081 29.996C113.081 28.502 112.649 27.314 111.767 26.432C110.903 25.55 109.787 25.118 108.419 25.118C106.979 25.118 105.809 25.586 104.891 26.54C103.991 27.494 103.541 28.682 103.541 30.14C103.541 32.642 105.053 35.216 108.689 35.216C110.291 35.216 111.875 34.604 112.829 33.866L112.091 32.552C111.209 33.2 109.877 33.632 108.725 33.632C106.709 33.632 105.629 32.516 105.341 30.878H113.027C113.063 30.41 113.081 30.122 113.081 29.996ZM105.341 29.384C105.629 27.782 106.835 26.648 108.419 26.648C110.003 26.648 111.209 27.71 111.299 29.384H105.341Z" fill="#4A4A4A"/>
</svg>
