<svg width="113" height="52" viewBox="0 0 113 52" fill="none" xmlns="http://www.w3.org/2000/svg">
<rect x="1" y="1" width="111" height="50" stroke="#BCC5E3"/>
<path d="M19.456 35V26.018L24.028 32.732H24.496L29.068 26.018V35H30.868V21.698H29.986L24.28 30.14L18.538 21.698H17.674V35H19.456ZM35.5834 35V29.888C35.5834 27.818 36.6994 26.756 38.2294 26.756C38.5534 26.756 38.8954 26.81 39.2374 26.918L39.3994 25.244C39.0214 25.154 38.6434 25.1 38.2654 25.1C36.9874 25.1 36.0514 25.658 35.4934 26.774V25.352H33.8554V35H35.5834ZM39.102 34.118C39.102 34.784 39.606 35.288 40.254 35.288C40.902 35.288 41.406 34.784 41.406 34.118C41.406 33.488 40.902 33.002 40.254 33.002C39.606 33.002 39.102 33.488 39.102 34.118Z" fill="white"/>
<path fill-rule="evenodd" clip-rule="evenodd" d="M98.6532 25.3595C99.1156 25.8387 99.1156 26.6158 98.6532 27.0951L92.3374 33.6405C91.8749 34.1198 91.1251 34.1198 90.6626 33.6405L84.3468 27.0951C83.8844 26.6158 83.8844 25.8387 84.3468 25.3595C84.8093 24.8802 85.5591 24.8802 86.0216 25.3595L91.5 31.0371L96.9784 25.3595C97.4409 24.8802 98.1907 24.8802 98.6532 25.3595Z" fill="white"/>
</svg>
