<svg width="24" height="24" viewBox="0 0 24 24" fill="none" xmlns="http://www.w3.org/2000/svg">
<path d="M9.61868 12.3426L16.4387 5.52258C16.7036 5.23823 16.8479 4.86214 16.841 4.47354C16.8342 4.08494 16.6768 3.71417 16.4019 3.43934C16.1271 3.16451 15.7563 3.00709 15.3677 3.00023C14.9791 2.99338 14.603 3.13762 14.3187 3.40258L7.31868 10.4026L6.91868 10.8026L6.43868 11.2826C6.15778 11.5638 6 11.9451 6 12.3426C6 12.7401 6.15778 13.1213 6.43868 13.4026L14.3187 21.2826C14.603 21.5475 14.9791 21.6918 15.3677 21.6849C15.7563 21.6781 16.1271 21.5207 16.4019 21.2458C16.6768 20.971 16.8342 20.6002 16.841 20.2116C16.8479 19.823 16.7036 19.4469 16.4387 19.1626L9.61868 12.3426Z" fill="white" fill-opacity="0.8"/>
</svg>
