<svg width="327" height="52" viewBox="0 0 327 52" fill="none" xmlns="http://www.w3.org/2000/svg">
<rect x="1" y="1" width="325" height="50" stroke="#BCC5E3"/>
<path d="M26.4302 35V33.29H19.9502V29.096H25.9442V27.386H19.9502V23.408H26.4302V21.698H18.1502V35H26.4302ZM39.9189 25.1C38.4069 25.1 37.0569 25.802 36.4089 26.9C35.8869 25.766 34.6809 25.1 33.3849 25.1C32.1069 25.082 31.0449 25.712 30.4689 26.774V25.352H28.7769V35H30.5049V29.6C30.5049 27.854 31.5849 26.702 33.0969 26.702C34.5369 26.702 35.4369 27.764 35.4369 29.564V35H37.1469V29.564C37.1469 27.854 38.2089 26.702 39.7209 26.702C41.1609 26.702 42.0429 27.728 42.0429 29.528V35H43.7709V29.258C43.7709 27.98 43.4289 26.972 42.7269 26.234C42.0249 25.478 41.0889 25.1 39.9189 25.1ZM53.9343 26.756C53.0343 25.658 51.9003 25.118 50.5323 25.118C49.1463 25.118 47.9943 25.586 47.0763 26.54C46.1583 27.476 45.7083 28.664 45.7083 30.104C45.7083 31.562 46.1583 32.768 47.0763 33.758C47.9943 34.748 49.1463 35.234 50.5323 35.234C51.9363 35.234 53.0703 34.694 53.9343 33.632V35H55.5903V25.352H53.9343V26.756ZM54.0423 30.158C54.0423 31.148 53.7363 31.976 53.1243 32.642C52.5123 33.308 51.7203 33.65 50.7303 33.65C49.7403 33.65 48.9483 33.308 48.3543 32.642C47.7603 31.976 47.4543 31.148 47.4543 30.176C47.4543 29.204 47.7603 28.376 48.3543 27.71C48.9483 27.044 49.7403 26.702 50.7303 26.702C51.7203 26.702 52.5123 27.044 53.1243 27.71C53.7363 28.376 54.0423 29.204 54.0423 30.158ZM59.173 23.984C59.839 23.984 60.397 23.462 60.397 22.742C60.397 22.076 59.839 21.536 59.173 21.536C58.453 21.536 57.913 22.04 57.913 22.742C57.913 23.462 58.453 23.984 59.173 23.984ZM60.001 25.352H58.273V35H60.001V25.352ZM64.4131 21.374H62.6851V35H64.4131V21.374ZM79.1765 26.756C78.2765 25.658 77.1425 25.118 75.7745 25.118C74.3885 25.118 73.2365 25.586 72.3185 26.54C71.4005 27.476 70.9505 28.664 70.9505 30.104C70.9505 31.562 71.4005 32.768 72.3185 33.758C73.2365 34.748 74.3885 35.234 75.7745 35.234C77.1785 35.234 78.3125 34.694 79.1765 33.632V35H80.8325V25.352H79.1765V26.756ZM79.2845 30.158C79.2845 31.148 78.9785 31.976 78.3665 32.642C77.7545 33.308 76.9625 33.65 75.9725 33.65C74.9825 33.65 74.1905 33.308 73.5965 32.642C73.0025 31.976 72.6965 31.148 72.6965 30.176C72.6965 29.204 73.0025 28.376 73.5965 27.71C74.1905 27.044 74.9825 26.702 75.9725 26.702C76.9625 26.702 77.7545 27.044 78.3665 27.71C78.9785 28.376 79.2845 29.204 79.2845 30.158ZM91.1292 26.756C90.2472 25.658 89.1312 25.118 87.7452 25.118C86.3592 25.118 85.2072 25.604 84.2892 26.594C83.3712 27.566 82.9212 28.754 82.9212 30.158C82.9212 31.58 83.3712 32.786 84.2892 33.776C85.2072 34.748 86.3772 35.234 87.7812 35.234C89.1672 35.234 90.2832 34.712 91.1292 33.65V35H92.8572V21.374H91.1292V26.756ZM91.2552 30.158C91.2552 31.148 90.9492 31.976 90.3372 32.642C89.7432 33.308 88.9512 33.65 87.9612 33.65C86.9712 33.65 86.1792 33.308 85.5672 32.642C84.9732 31.976 84.6672 31.148 84.6672 30.158C84.6672 29.204 84.9732 28.376 85.5672 27.71C86.1792 27.044 86.9712 26.702 87.9612 26.702C88.9512 26.702 89.7432 27.044 90.3372 27.71C90.9492 28.376 91.2552 29.204 91.2552 30.158ZM103.135 26.756C102.253 25.658 101.137 25.118 99.7511 25.118C98.3651 25.118 97.2131 25.604 96.2951 26.594C95.3771 27.566 94.9271 28.754 94.9271 30.158C94.9271 31.58 95.3771 32.786 96.2951 33.776C97.2131 34.748 98.3831 35.234 99.7871 35.234C101.173 35.234 102.289 34.712 103.135 33.65V35H104.863V21.374H103.135V26.756ZM103.261 30.158C103.261 31.148 102.955 31.976 102.343 32.642C101.749 33.308 100.957 33.65 99.9671 33.65C98.9771 33.65 98.1851 33.308 97.5731 32.642C96.9791 31.976 96.6731 31.148 96.6731 30.158C96.6731 29.204 96.9791 28.376 97.5731 27.71C98.1851 27.044 98.9771 26.702 99.9671 26.702C100.957 26.702 101.749 27.044 102.343 27.71C102.955 28.376 103.261 29.204 103.261 30.158ZM109.255 35V29.888C109.255 27.818 110.371 26.756 111.901 26.756C112.225 26.756 112.567 26.81 112.909 26.918L113.071 25.244C112.693 25.154 112.315 25.1 111.937 25.1C110.659 25.1 109.723 25.658 109.165 26.774V25.352H107.527V35H109.255ZM123.03 29.996C123.03 28.502 122.598 27.314 121.716 26.432C120.852 25.55 119.736 25.118 118.368 25.118C116.928 25.118 115.758 25.586 114.84 26.54C113.94 27.494 113.49 28.682 113.49 30.14C113.49 32.642 115.002 35.216 118.638 35.216C120.24 35.216 121.824 34.604 122.778 33.866L122.04 32.552C121.158 33.2 119.826 33.632 118.674 33.632C116.658 33.632 115.578 32.516 115.29 30.878H122.976C123.012 30.41 123.03 30.122 123.03 29.996ZM115.29 29.384C115.578 27.782 116.784 26.648 118.368 26.648C119.952 26.648 121.158 27.71 121.248 29.384H115.29ZM127.77 35.216C128.796 35.216 129.624 34.928 130.272 34.37C130.92 33.812 131.244 33.11 131.244 32.282C131.244 31.22 130.704 30.41 129.606 29.852C129.318 29.69 128.886 29.492 128.31 29.258L127.248 28.79C126.708 28.538 126.438 28.16 126.438 27.656C126.438 27.008 126.96 26.486 127.824 26.486C128.688 26.486 129.372 26.864 129.894 27.602L130.992 26.558C130.344 25.55 129.156 25.028 127.932 25.028C126.978 25.028 126.222 25.28 125.646 25.802C125.07 26.306 124.782 26.954 124.782 27.728C124.782 28.754 125.268 29.528 126.258 30.068C126.456 30.176 126.852 30.356 127.446 30.608C128.04 30.86 128.454 31.04 128.652 31.148C129.246 31.454 129.534 31.868 129.534 32.372C129.534 33.11 128.85 33.704 127.824 33.704C126.942 33.704 125.988 33.2 125.43 32.174L124.188 33.128C124.926 34.514 126.33 35.216 127.77 35.216ZM135.926 35.216C136.952 35.216 137.78 34.928 138.428 34.37C139.076 33.812 139.4 33.11 139.4 32.282C139.4 31.22 138.86 30.41 137.762 29.852C137.474 29.69 137.042 29.492 136.466 29.258L135.404 28.79C134.864 28.538 134.594 28.16 134.594 27.656C134.594 27.008 135.116 26.486 135.98 26.486C136.844 26.486 137.528 26.864 138.05 27.602L139.148 26.558C138.5 25.55 137.312 25.028 136.088 25.028C135.134 25.028 134.378 25.28 133.802 25.802C133.226 26.306 132.938 26.954 132.938 27.728C132.938 28.754 133.424 29.528 134.414 30.068C134.612 30.176 135.008 30.356 135.602 30.608C136.196 30.86 136.61 31.04 136.808 31.148C137.402 31.454 137.69 31.868 137.69 32.372C137.69 33.11 137.006 33.704 135.98 33.704C135.098 33.704 134.144 33.2 133.586 32.174L132.344 33.128C133.082 34.514 134.486 35.216 135.926 35.216Z" fill="white" fill-opacity="0.44"/>
</svg>
