<svg width="89" height="52" viewBox="0 0 89 52" fill="none" xmlns="http://www.w3.org/2000/svg">
<rect x="1" y="1" width="87" height="50" stroke="#BCC5E3"/>
<path d="M19.652 27.908V24.506H18.032V27.908H14.612V29.528H18.032V32.948L19.652 32.93V29.528H23.036V27.908H19.652ZM28.9604 21.464C27.6284 21.464 26.5304 21.878 25.6844 22.724C24.8384 23.57 24.4064 24.632 24.4064 25.928C24.4064 27.17 24.8024 28.196 25.5944 29.006C26.3864 29.816 27.3764 30.23 28.5824 30.23C30.1484 30.23 31.4444 29.42 32.0384 28.268C32.0384 31.004 30.9764 33.65 28.2944 33.65C27.3404 33.65 26.4224 33.344 25.5764 32.714L24.8924 34.1C25.7744 34.838 26.9264 35.216 28.3484 35.216C32.1644 35.216 33.7124 31.76 33.7124 27.944C33.7124 25.982 33.2984 24.416 32.4884 23.246C31.6784 22.058 30.5084 21.464 28.9604 21.464ZM31.6604 25.91C31.6604 26.702 31.3904 27.368 30.8504 27.89C30.3284 28.412 29.6624 28.682 28.8884 28.682C28.1144 28.682 27.4484 28.43 26.9264 27.908C26.4044 27.386 26.1524 26.72 26.1524 25.928C26.1524 25.1 26.4224 24.416 26.9444 23.876C27.4664 23.318 28.1324 23.048 28.9244 23.048C29.6984 23.048 30.3464 23.318 30.8684 23.876C31.3904 24.434 31.6604 25.1 31.6604 25.91ZM34.7439 24.866L35.7339 26.108L38.1459 24.092V35H39.9279V21.698H38.5059L34.7439 24.866Z" fill="white"/>
<path fill-rule="evenodd" clip-rule="evenodd" d="M78.6532 25.3595C79.1156 25.8387 79.1156 26.6158 78.6532 27.0951L72.3374 33.6405C71.8749 34.1198 71.1251 34.1198 70.6626 33.6405L64.3468 27.0951C63.8844 26.6158 63.8844 25.8387 64.3468 25.3595C64.8093 24.8802 65.5591 24.8802 66.0216 25.3595L71.5 31.0371L76.9784 25.3595C77.4409 24.8802 78.1907 24.8802 78.6532 25.3595Z" fill="white"/>
</svg>
