<svg width="231" height="52" viewBox="0 0 231 52" fill="none" xmlns="http://www.w3.org/2000/svg">
<rect x="1" y="1" width="229" height="50" stroke="#BCC5E3"/>
<path d="M15.0252 35V26.018L19.5972 32.732H20.0652L24.6372 26.018V35H26.4372V21.698H25.5552L19.8492 30.14L14.1072 21.698H13.2432V35H15.0252ZM33.8363 35.234C35.2943 35.234 36.5003 34.748 37.4543 33.776C38.4083 32.786 38.8943 31.58 38.8943 30.158C38.8943 28.754 38.4083 27.566 37.4543 26.576C36.5003 25.586 35.2943 25.1 33.8363 25.1C32.3603 25.1 31.1363 25.586 30.1823 26.576C29.2283 27.548 28.7603 28.736 28.7603 30.158C28.7603 31.58 29.2283 32.786 30.1823 33.776C31.1363 34.748 32.3603 35.234 33.8363 35.234ZM37.1663 30.158C37.1663 31.112 36.8423 31.94 36.1943 32.624C35.5463 33.308 34.7543 33.65 33.8363 33.65C32.9183 33.65 32.1263 33.308 31.4783 32.624C30.8303 31.94 30.5063 31.112 30.5063 30.158C30.5063 29.204 30.8303 28.394 31.4783 27.728C32.1263 27.044 32.9183 26.702 33.8363 26.702C34.7543 26.702 35.5463 27.044 36.1943 27.728C36.8423 28.394 37.1663 29.204 37.1663 30.158ZM46.0859 25.118C44.6999 25.118 43.5659 25.676 42.6839 26.81V21.374H40.9559V35H42.6839V33.596C43.5479 34.694 44.6819 35.234 46.0679 35.234C47.4539 35.234 48.5879 34.748 49.5059 33.776C50.4239 32.786 50.8919 31.598 50.8919 30.176C50.8919 28.754 50.4239 27.566 49.5059 26.594C48.5879 25.604 47.4539 25.118 46.0859 25.118ZM45.8699 33.614C44.8799 33.614 44.0879 33.29 43.4939 32.624C42.8999 31.958 42.6119 31.148 42.6119 30.158C42.6119 29.204 42.8999 28.394 43.4939 27.728C44.0879 27.062 44.8799 26.738 45.8699 26.738C46.8419 26.738 47.6339 27.062 48.2279 27.728C48.8399 28.394 49.1459 29.204 49.1459 30.158C49.1459 31.13 48.8399 31.958 48.2279 32.624C47.6339 33.29 46.8419 33.614 45.8699 33.614ZM53.8793 23.984C54.5453 23.984 55.1033 23.462 55.1033 22.742C55.1033 22.076 54.5453 21.536 53.8793 21.536C53.1593 21.536 52.6193 22.04 52.6193 22.742C52.6193 23.462 53.1593 23.984 53.8793 23.984ZM54.7073 25.352H52.9793V35H54.7073V25.352ZM59.1194 21.374H57.3914V35H59.1194V21.374ZM70.7676 29.996C70.7676 28.502 70.3356 27.314 69.4536 26.432C68.5896 25.55 67.4736 25.118 66.1056 25.118C64.6656 25.118 63.4956 25.586 62.5776 26.54C61.6776 27.494 61.2276 28.682 61.2276 30.14C61.2276 32.642 62.7396 35.216 66.3756 35.216C67.9776 35.216 69.5616 34.604 70.5156 33.866L69.7776 32.552C68.8956 33.2 67.5636 33.632 66.4116 33.632C64.3956 33.632 63.3156 32.516 63.0276 30.878H70.7136C70.7496 30.41 70.7676 30.122 70.7676 29.996ZM63.0276 29.384C63.3156 27.782 64.5216 26.648 66.1056 26.648C67.6896 26.648 68.8956 27.71 68.9856 29.384H63.0276ZM86.5067 31.184L78.4067 21.698H77.5967V35H79.3787V25.568L87.3527 35H88.2887V21.698H86.5067V31.184ZM95.2258 35.234C97.7998 35.234 99.3658 33.686 99.3658 31.112V25.352H97.6558V31.058C97.6558 32.642 96.7558 33.632 95.2258 33.632C93.7138 33.632 92.8138 32.642 92.8138 31.058V25.352H91.0858V31.112C91.0858 33.632 92.7058 35.234 95.2258 35.234ZM113.059 25.1C111.547 25.1 110.197 25.802 109.549 26.9C109.027 25.766 107.821 25.1 106.525 25.1C105.247 25.082 104.185 25.712 103.609 26.774V25.352H101.917V35H103.645V29.6C103.645 27.854 104.725 26.702 106.237 26.702C107.677 26.702 108.577 27.764 108.577 29.564V35H110.287V29.564C110.287 27.854 111.349 26.702 112.861 26.702C114.301 26.702 115.183 27.728 115.183 29.528V35H116.911V29.258C116.911 27.98 116.569 26.972 115.867 26.234C115.165 25.478 114.229 25.1 113.059 25.1ZM124.572 25.118C123.186 25.118 122.052 25.676 121.17 26.81V21.374H119.442V35H121.17V33.596C122.034 34.694 123.168 35.234 124.554 35.234C125.94 35.234 127.074 34.748 127.992 33.776C128.91 32.786 129.378 31.598 129.378 30.176C129.378 28.754 128.91 27.566 127.992 26.594C127.074 25.604 125.94 25.118 124.572 25.118ZM124.356 33.614C123.366 33.614 122.574 33.29 121.98 32.624C121.386 31.958 121.098 31.148 121.098 30.158C121.098 29.204 121.386 28.394 121.98 27.728C122.574 27.062 123.366 26.738 124.356 26.738C125.328 26.738 126.12 27.062 126.714 27.728C127.326 28.394 127.632 29.204 127.632 30.158C127.632 31.13 127.326 31.958 126.714 32.624C126.12 33.29 125.328 33.614 124.356 33.614ZM140.43 29.996C140.43 28.502 139.998 27.314 139.116 26.432C138.252 25.55 137.136 25.118 135.768 25.118C134.328 25.118 133.158 25.586 132.24 26.54C131.34 27.494 130.89 28.682 130.89 30.14C130.89 32.642 132.402 35.216 136.038 35.216C137.64 35.216 139.224 34.604 140.178 33.866L139.44 32.552C138.558 33.2 137.226 33.632 136.074 33.632C134.058 33.632 132.978 32.516 132.69 30.878H140.376C140.412 30.41 140.43 30.122 140.43 29.996ZM132.69 29.384C132.978 27.782 134.184 26.648 135.768 26.648C137.352 26.648 138.558 27.71 138.648 29.384H132.69ZM144.198 35V29.888C144.198 27.818 145.314 26.756 146.844 26.756C147.168 26.756 147.51 26.81 147.852 26.918L148.014 25.244C147.636 25.154 147.258 25.1 146.88 25.1C145.602 25.1 144.666 25.658 144.108 26.774V25.352H142.47V35H144.198Z" fill="white" fill-opacity="0.44"/>
</svg>
